<?xml version="1.0" ?><svg data-name="Layer 1" id="Layer_1" viewBox="0 0 128 128" xmlns="http://www.w3.org/2000/svg"><defs><style>.cls-1{fill:#b6e5ff;}.cls-2{fill:#eefaff;}.cls-3{fill:#56771d;}.cls-13,.cls-15,.cls-16,.cls-19,.cls-23,.cls-24,.cls-25,.cls-4,.cls-6{fill:none;}.cls-4{stroke:#aeaf6b;}.cls-13,.cls-15,.cls-16,.cls-19,.cls-24,.cls-25,.cls-4,.cls-6{stroke-miterlimit:10;}.cls-13,.cls-15,.cls-16,.cls-19,.cls-23,.cls-4,.cls-6{stroke-width:4px;}.cls-5{fill:#82ad44;}.cls-6{stroke:#c6cc7d;}.cls-7{fill:#618c20;}.cls-8{fill:#749934;}.cls-9{fill:#513f29;}.cls-10{fill:#d48051;}.cls-11{fill:#e6a27b;}.cls-12{fill:#b15f3a;}.cls-13{stroke:#925739;}.cls-14{fill:#bc693d;}.cls-15{stroke:#d48051;}.cls-15,.cls-16,.cls-23{stroke-linecap:round;}.cls-16{stroke:#af8d7b;}.cls-17{fill:#ae937c;}.cls-18{fill:#d1b6a1;}.cls-19{stroke:#96745a;}.cls-20{fill:#0e5939;}.cls-21{fill:#fff;opacity:0.29;}.cls-22{fill:#c2c3cc;}.cls-23{stroke:#0d3827;stroke-linejoin:round;}.cls-24{stroke:#eefaff;}.cls-24,.cls-25{stroke-width:2px;}.cls-25{stroke:#fff;stroke-linecap:square;}.cls-26{fill:#9ec45b;}.cls-27{fill:#adcc71;}</style></defs><title/><circle class="cls-1" cx="64" cy="64" r="63"/><path class="cls-1" d="M46,81a9.94,9.94,0,0,0-4.29,1A16,16,0,0,0,10,85c0,.09,0,.18,0,.26A8,8,0,1,0,8,101H46a10,10,0,0,0,0-20Z"/><path class="cls-1" d="M117,17a9.94,9.94,0,0,0-4.29,1A16,16,0,0,0,81,21c0,.09,0,.18,0,.26A8,8,0,1,0,79,37h38a10,10,0,0,0,0-20Z"/><path class="cls-2" d="M117,12a9.94,9.94,0,0,0-4.29,1A16,16,0,0,0,81,16c0,.09,0,.18,0,.26A8,8,0,1,0,79,32h38a10,10,0,0,0,0-20Z"/><path class="cls-2" d="M46,76a9.94,9.94,0,0,0-4.29,1A16,16,0,0,0,10,80c0,.09,0,.18,0,.26A8,8,0,1,0,8,96H46a10,10,0,0,0,0-20Z"/><path class="cls-3" d="M70.48,34.11s3.4,2.34,6-6.06C76.44,28.05,70.31,29.11,70.48,34.11Z"/><path class="cls-3" d="M72.34,14.39s1.87,3.68,8.13-2.47C80.48,11.91,74.59,9.91,72.34,14.39Z"/><path class="cls-4" d="M68.57,47.43c2.17-3,4.44-7.17,3.5-11.5-.8-3.66-3.23-4.32-4.5-8.5s-1.15-11.46,3-13.5c3.39-1.67,9,.32,12.5,5.5"/><path class="cls-3" d="M60.58,12s8.28-7,8.2-6.75,6.92.73,6.92.73l4.79,2s-2,6.83-1.91,7.15-.17,5.25-.17,5.25l-6.71,2.57-4.12-.84-3.88,3.34-7.5,1,2,4-3.62,3.72-2.11-.3-6.27-5.8,4-8.27Z"/><path class="cls-4" d="M57.07,46.93c-.15-3.88-1-9.4-5-13.5-2.76-2.85-4.41-2.33-7.5-5.5a21.59,21.59,0,0,1-5.2-9.13"/><path class="cls-3" d="M51.54,13.15s7,7.38,12.72-4.23C64.26,8.92,51.44,4.52,51.54,13.15Z"/><path class="cls-3" d="M83.17,18.8s-10.14-.3-6,12C77.17,30.78,89.34,24.83,83.17,18.8Z"/><path class="cls-3" d="M65.2,12.22s-7.38,7,4.23,12.72C69.43,24.93,73.83,12.12,65.2,12.22Z"/><path class="cls-3" d="M43.57,22.93c-.93-.33-1.1-7,3-10,1.52-1.13,4.7-2.56,6.5-1s1.47,5,0,6c-1.07.74-2.09-.35-4,0C45.53,18.59,44.38,23.22,43.57,22.93Z"/><path class="cls-3" d="M91.07,21.43c-.75.86-4.21-2-6.5-.5-1.25.85-1,2.27-2,2.5-1.44.34-4.11-2.27-4-5s3-4.87,5.5-5C88.88,13.19,92,20.36,91.07,21.43Z"/><path class="cls-3" d="M69.07,29.93c-.75.86-4.21-2-6.5-.5-1.25.85-1,2.27-2,2.5-1.44.34-4.11-2.27-4-5s3-4.87,5.5-5C66.88,21.69,70,28.86,69.07,29.93Z"/><path class="cls-3" d="M71.57,11.43c-.75.86-4.21-2-6.5-.5-1.25.85-1,2.27-2,2.5-1.44.34-4.11-2.27-4-5s3-4.87,5.5-5C69.38,3.19,72.51,10.36,71.57,11.43Z"/><path class="cls-3" d="M78.88,18.42s-5.61,8.46,7,11.42C85.9,29.84,87.27,16.36,78.88,18.42Z"/><path class="cls-3" d="M76.57,16.93c-2.39-.92-4.8,1.31-5,1.5-3.28,3.12-2.1,9.28-1,9.5s2-5.4,5.5-6c1.5-.26,2.47.58,3,0C79.87,21.05,78.83,17.81,76.57,16.93Z"/><path class="cls-3" d="M63.07,4.43c-2.39-.92-4.8,1.31-5,1.5-3.28,3.12-2.1,9.28-1,9.5s2-5.4,5.5-6c1.5-.26,2.47.58,3,0C66.37,8.55,65.33,5.31,63.07,4.43Z"/><path class="cls-3" d="M50.57,14.43c1.18-.93,4-.13,5,1.5.81,1.3-.08,2.23.5,4,1,3,4.71,3.63,4.5,4.5s-4.53,1.64-7.5-.5C49.65,21.47,48.86,15.78,50.57,14.43Z"/><path class="cls-3" d="M59.07,22.93c1.18-.93,4-.13,5,1.5.81,1.3-.08,2.23.5,4,1,3,4.71,3.63,4.5,4.5s-4.53,1.64-7.5-.5C58.15,30,57.36,24.28,59.07,22.93Z"/><path class="cls-4" d="M54.57,46.43c5.31-5.49,6.4-10,6.5-13,.25-7.22-5.09-11-4-17.5.75-4.52,4.12-7.69,6.5-9.5"/><path class="cls-3" d="M44.37,13.53c-2.54.27-3.68,3.35-3.77,3.61C39.1,21.41,43,26.36,44,26.05s-.67-5.72,2.17-7.85c1.22-.91,2.46-.61,2.67-1.37C49.19,15.7,46.79,13.27,44.37,13.53Z"/><path class="cls-3" d="M61.88,5.42s-5.61,8.46,7,11.42C68.9,16.84,70.27,3.36,61.88,5.42Z"/><path class="cls-3" d="M43.38,17.92s-5.61,8.46,7,11.42C50.4,29.34,51.77,15.86,43.38,17.92Z"/><path class="cls-3" d="M56.83,29.69S60.14,27.22,53,22.1C53,22.1,52,28.24,56.83,29.69Z"/><path class="cls-4" d="M46.57,46.43a12,12,0,0,0,1.5-9.5c-1.69-6-7.59-7.88-8-8"/><path class="cls-3" d="M39.26,35.77c.75,0,1-2.9,2.78-3.24,1-.19,1.53.57,2.08.23.82-.51.85-3-.46-4.17a3.84,3.84,0,0,0-4.86.23C36.46,30.94,38.33,35.7,39.26,35.77Z"/><path class="cls-3" d="M43.72,29.75s6.5,1.34,2.14,8.21C45.85,38,38.94,32.5,43.72,29.75Z"/><path class="cls-3" d="M42.73,28.13c.68-1.53,2.83-1.62,3-1.62,3-.08,5.27,3.33,4.86,3.94s-3.43-1.57-5.32-.23c-.81.57-.88,1.41-1.39,1.39C43.11,31.56,42.09,29.58,42.73,28.13Z"/><path class="cls-3" d="M67.57,21.43a4.49,4.49,0,0,0-4-4c-.54,0-1.32.19-4.5,4-2.61,3.13-3.91,4.72-3.5,5.5.62,1.19,3.94.71,6,0C62.3,26.68,67.75,24.81,67.57,21.43Z"/><path class="cls-5" d="M56.28,34.61s-3.4,2.34-6-6.06C50.32,28.55,56.44,29.61,56.28,34.61Z"/><path class="cls-6" d="M62.69,46.93c.15-3.88,1-9.4,5-13.5,2.76-2.85,4.41-2.33,7.5-5.5.84-.87,6.89-7.27,5.5-15.5a16.16,16.16,0,0,0-3.5-7.5"/><path class="cls-6" d="M58.19,47.43c-2.17-3-4.44-7.17-3.5-11.5.8-3.66,3.23-4.32,4.5-8.5s1.15-11.46-3-13.5c-3.39-1.67-9,.32-12.5,5.5"/><path class="cls-7" d="M78.72,5.65S71.75,13,66,1.42C66,1.42,78.81-3,78.72,5.65Z"/><path class="cls-7" d="M41.59,18.8s10.14-.3,6,12C47.59,30.78,35.42,24.83,41.59,18.8Z"/><path class="cls-7" d="M59.56,12.22s7.38,7-4.23,12.72C55.33,24.93,50.93,12.12,59.56,12.22Z"/><path class="cls-5" d="M86.69,15.43c.93-.33,1.1-7-3-10-1.52-1.13-4.7-2.56-6.5-1s-1.47,5,0,6c1.07.74,2.09-.35,4,0C84.73,11.09,85.88,15.72,86.69,15.43Z"/><path class="cls-8" d="M33.69,21.43c.75.86,4.21-2,6.5-.5,1.25.85,1,2.27,2,2.5,1.44.34,4.11-2.27,4-5s-3-4.87-5.5-5C35.88,13.19,32.75,20.36,33.69,21.43Z"/><path class="cls-8" d="M53.19,11.43c.75.86,4.21-2,6.5-.5,1.25.85,1,2.27,2,2.5,1.44.34,4.11-2.27,4-5s-3-4.87-5.5-5C55.38,3.19,52.25,10.36,53.19,11.43Z"/><path class="cls-5" d="M44.37,18.42s5.61,8.46-7,11.42C37.36,29.84,36,16.36,44.37,18.42Z"/><path class="cls-5" d="M45.69,16.93c2.39-.92,4.8,1.31,5,1.5,3.28,3.12,2.1,9.28,1,9.5s-2-5.4-5.5-6c-1.5-.26-2.47.58-3,0C42.39,21.05,43.43,17.81,45.69,16.93Z"/><path class="cls-5" d="M61.69,4.43c2.39-.92,4.8,1.31,5,1.5,3.28,3.12,2.1,9.28,1,9.5s-2-5.4-5.5-6c-1.5-.26-2.47.58-3,0C58.39,8.55,59.43,5.31,61.69,4.43Z"/><path class="cls-5" d="M79.69,6.93c-1.18-.93-4-.13-5,1.5-.81,1.3.08,2.23-.5,4-1,3-4.71,3.63-4.5,4.5s4.53,1.64,7.5-.5C80.61,14,81.4,8.28,79.69,6.93Z"/><path class="cls-6" d="M70.19,46.43c-5.31-5.49-6.4-10-6.5-13-.25-7.22,5.09-11,4-17.5-.75-4.52-4.12-7.69-6.5-9.5"/><path class="cls-7" d="M80.38,13.53c2.54.27,3.68,3.35,3.77,3.61,1.5,4.27-2.36,9.22-3.43,8.91s.67-5.72-2.17-7.85c-1.22-.91-2.46-.61-2.67-1.37C75.57,15.7,78,13.27,80.38,13.53Z"/><path class="cls-5" d="M62.87,5.42s5.61,8.46-7,11.42C55.86,16.84,54.49,3.36,62.87,5.42Z"/><path class="cls-5" d="M81.37,17.92s5.61,8.46-7,11.42C74.36,29.34,73,15.86,81.37,17.92Z"/><path class="cls-5" d="M67.92,34.69s-3.31-2.47,3.82-7.59C71.75,27.1,72.72,33.24,67.92,34.69Z"/><path class="cls-6" d="M77.19,46.43a12,12,0,0,1-1.5-9.5c1.69-6,7.59-7.88,8-8"/><path class="cls-7" d="M85.5,35.77c-.75,0-1-2.9-2.78-3.24-1-.19-1.53.57-2.08.23-.82-.51-.85-3,.46-4.17a3.84,3.84,0,0,1,4.86.23C88.3,30.94,86.43,35.7,85.5,35.77Z"/><path class="cls-5" d="M82,29.75S75.54,31.09,79.9,38C79.9,38,86.82,32.5,82,29.75Z"/><path class="cls-5" d="M82,28.13c-.68-1.53-2.83-1.62-3-1.62-3-.08-5.27,3.33-4.86,3.94s3.43-1.57,5.32-.23c.81.57.88,1.41,1.39,1.39C81.64,31.56,82.67,29.58,82,28.13Z"/><path class="cls-5" d="M57.19,21.43a4.49,4.49,0,0,1,4-4c.54,0,1.32.19,4.5,4,2.61,3.13,3.91,4.72,3.5,5.5-.62,1.19-3.94.71-6,0C62.46,26.68,57,24.81,57.19,21.43Z"/><path class="cls-9" d="M107.6,43.21s0,.06,0,.09C108.77,42.88,108,43,107.6,43.21Z"/><path class="cls-9" d="M109.43,45l.13-.77c-.61-.16-1-.23-1-.23-1.49-.25-1.32-.58-.94-.79C107.06,41,100.53,40.89,97.4,39c-2.75-1.65-5.32-2.39-11.94-1-6.18,1.3-6.7-.24-15.13,1a78.54,78.54,0,0,1-9.55,1c-6.86.52-8.7-.87-16.72-2-4.87-.68-13.24-1.85-16.58,1.66-2.88.11-5,2.71-8.1,3.34A16.47,16.47,0,0,0,18,45Z"/><path class="cls-5" d="M66.12,16.91s3.4-2.34,6,6.06C72.08,23,66,21.92,66.12,16.91Z"/><path class="cls-5" d="M52.41,14.39s-1.87,3.68-8.13-2.47C44.28,11.91,50.17,9.91,52.41,14.39Z"/><path class="cls-10" d="M64,52H18l2.46,8.64A4,4,0,0,0,24.41,64h79.19a4,4,0,0,0,3.95-3.36L110,52Z"/><path class="cls-11" d="M21.2,62.37c8.81,0,8.3-6.15,8-7.68L28,52H18l2.46,8.64A4,4,0,0,0,21.2,62.37Z"/><rect class="cls-10" height="8" rx="4" ry="4" width="96" x="16" y="44"/><path class="cls-11" d="M20,44a4,4,0,0,0,0,8H79a8,8,0,0,0,8-8Z"/><path class="cls-10" d="M64,64H25l11.64,45.6c.79,4.84,5,12.4,9.87,12.4h35c4.9,0,9.08-7.56,9.87-12.4L103,64Z"/><path class="cls-11" d="M37.14,114.37h-.38L25,64H35l10.09,40.08S47.27,114.37,37.14,114.37Z"/><polygon class="cls-12" points="64 71 100.72 71 103 64 64 64 25 64 27.27 71 64 71"/><path class="cls-13" d="M64,52H18l2.46,8.64A4,4,0,0,0,24.41,64h79.19a4,4,0,0,0,3.95-3.36L110,52Z"/><path class="cls-13" d="M64,64H25l11.64,49.6a10,10,0,0,0,9.87,8.4h35a10,10,0,0,0,9.87-8.4L103,64Z"/><rect class="cls-13" height="8" rx="4" ry="4" width="96" x="16" y="44"/><rect class="cls-14" height="38" rx="4" ry="4" width="34" x="47" y="77"/><ellipse class="cls-15" cx="69.5" cy="101.5" rx="3.5" ry="5.5"/><ellipse class="cls-15" cx="62.5" cy="89.5" rx="3.5" ry="5.5" transform="translate(-46.43 82.39) rotate(-51.34)"/><ellipse class="cls-15" cx="56.5" cy="97.5" rx="5.5" ry="3.5" transform="translate(-15.01 10.41) rotate(-9.3)"/><path class="cls-15" d="M77.2,87.11A26.16,26.16,0,0,1,70,94a35.61,35.61,0,0,1-7.87,2.9"/><line class="cls-16" x1="34" x2="116" y1="126" y2="126"/><line class="cls-16" x1="14" x2="23" y1="126" y2="126"/><rect class="cls-17" height="16" transform="translate(62.94 117.91) rotate(-75.66)" width="26" x="94.39" y="10.43"/><path class="cls-18" d="M103.35,1.92,97.91,23.23a6,6,0,0,0,7.3-4.33l4-15.5Z"/><line class="cls-19" x1="112.92" x2="120.03" y1="31.01" y2="3.2"/><line class="cls-19" x1="97.42" x2="104.08" y1="27.05" y2="1"/><path class="cls-20" d="M81.4,122c20.51-6.12,24-17.71,27.46-22.65l10.71-41.91L78.88,47.08,68.17,89C68.86,95,66.35,106.83,81.4,122Z"/><path class="cls-21" d="M78.88,47.08,68.24,88.74a6,6,0,0,0,7.3-4.33l7.68-30h0a6,6,0,0,0,7.3-4.33Z"/><path class="cls-20" d="M97.42,27,92.9,56.86s-4.23,20.59-.36,21.58,10-19.11,10-19.11L112.92,31Z"/><path class="cls-21" d="M98.73,49.32l4.51-20.78L97.42,27,93.34,54.37C97.77,53.72,98.73,49.32,98.73,49.32Z"/><circle class="cls-22" cx="102.94" cy="37.75" r="3" transform="translate(40.88 128.14) rotate(-75.66)"/><path class="cls-23" d="M93.95,50.93s-3.79,20.71.08,21.7,10.48-19,10.48-19"/><path class="cls-23" d="M68.17,89c.69,6-1.82,17.83,13.23,33,20.51-6.12,24-17.71,27.46-22.65l10.71-41.91-15.07-3.85L112.92,31l-15.5-4L93.95,50.93,78.88,47.08Z"/><line class="cls-23" x1="94.03" x2="89.32" y1="72.63" y2="91.03"/><line class="cls-24" x1="116" x2="126" y1="45" y2="45"/><line class="cls-24" x1="121" x2="121" y1="50" y2="40"/><path class="cls-25" d="M27.12,103.88A3,3,0,0,0,22,106h0a3,3,0,0,0-5.12-2.12A2.86,2.86,0,0,0,17,108l5,6,5-6A2.86,2.86,0,0,0,27.12,103.88Z"/><circle class="cls-25" cx="18" cy="25" r="5"/><path class="cls-26" d="M39.23,83.76S51,82,47,107C47,107,32.46,96.51,39.23,83.76Z"/><path class="cls-8" d="M8.49,60.32s11.89.51,3.23,24.3C11.72,84.62-.57,71.56,8.49,60.32Z"/><path class="cls-5" d="M28.13,46.55s-8.12-1.5.14-17C28.27,29.55,35.45,39.71,28.13,46.55Z"/><path class="cls-5" d="M26.47,19.51s-6.62-4.94,7.65-15.19C34.11,4.33,36.05,16.61,26.47,19.51Z"/><path class="cls-27" d="M54.45,65.91S50.71,73.27,38.18,61C38.18,61,50,57,54.45,65.91Z"/></svg>