<?xml version="1.0" encoding="iso-8859-1"?>
<!-- Generator: Adobe Illustrator 17.1.0, SVG Export Plug-In . SVG Version: 6.00 Build 0)  -->
<!DOCTYPE svg PUBLIC "-//W3C//DTD SVG 1.1//EN" "http://www.w3.org/Graphics/SVG/1.1/DTD/svg11.dtd">
<svg version="1.1" id="Capa_1" xmlns="http://www.w3.org/2000/svg" xmlns:xlink="http://www.w3.org/1999/xlink" x="0px" y="0px"
	 viewBox="0 0 395.524 395.524" style="enable-background:new 0 0 395.524 395.524;" xml:space="preserve">
<path d="M187.19,286.606c0,4.971-4.029,9-9,9c-17.005,0-33.846-4.27-48.702-12.347c-32.927-17.903-53.381-52.288-53.381-89.735
	c0-56.289,45.794-102.083,102.083-102.083c43.718,0,82.556,27.784,96.646,69.136c1.603,4.705-0.912,9.818-5.617,11.421
	c-4.705,1.602-9.818-0.911-11.422-5.617c-11.604-34.058-43.595-56.941-79.606-56.941c-46.363,0-84.083,37.72-84.083,84.083
	c0,30.847,16.852,59.172,43.979,73.922c12.226,6.647,26.094,10.161,40.104,10.161C183.161,277.606,187.19,281.635,187.19,286.606z
	 M237.479,193.523c0,32.692-26.597,59.29-59.289,59.29c-32.694,0-59.293-26.597-59.293-59.29s26.599-59.29,59.293-59.29
	C210.883,134.233,237.479,160.831,237.479,193.523z M219.479,193.523c0-22.768-18.522-41.29-41.289-41.29
	c-22.769,0-41.293,18.522-41.293,41.29c0,22.767,18.524,41.29,41.293,41.29C200.957,234.813,219.479,216.29,219.479,193.523z
	 M160.728,365.315c-7.682-1.494-11.532-3.564-12.843-4.584l-4.069-39.203c-0.364-3.508-2.744-6.48-6.087-7.603
	c-16.138-5.419-30.824-13.922-43.653-25.273c-2.645-2.338-6.41-2.916-9.636-1.476l-36.078,16.122
	c-3.381-1.258-12.152-8.797-20.458-23.184c-8.301-14.376-10.447-25.736-9.85-29.302l32.056-23.228
	c2.85-2.065,4.234-5.601,3.545-9.051c-1.637-8.194-2.467-16.614-2.467-25.027c0-8.52,0.848-17.028,2.519-25.287
	c0.699-3.457-0.685-7.004-3.541-9.073L18.054,135.88c-0.598-3.565,1.548-14.926,9.85-29.303
	c8.305-14.384,17.075-21.924,20.458-23.185l36.32,16.23c3.219,1.438,6.978,0.865,9.62-1.462
	c12.766-11.242,27.366-19.675,43.396-25.064c3.342-1.124,5.72-4.095,6.084-7.602l4.106-39.563c2.788-2.3,13.699-6.121,30.302-6.121
	c16.609,0,27.523,3.826,30.307,6.125l4.104,39.559c0.364,3.507,2.742,6.479,6.085,7.602c16.021,5.386,30.623,13.82,43.397,25.067
	c2.644,2.327,6.401,2.899,9.619,1.462l36.323-16.229c3.386,1.267,12.15,8.806,20.453,23.181
	c8.303,14.384,10.448,25.748,9.849,29.309l-32.112,23.263c-2.857,2.07-4.241,5.619-3.54,9.077c0.549,2.71,1.016,5.486,1.387,8.25
	c0.661,4.927,5.196,8.388,10.116,7.724c4.927-0.661,8.385-5.19,7.724-10.116c-0.164-1.226-0.345-2.454-0.542-3.679l27.792-20.133
	c13.692-8.648,5.878-33.706-5.085-52.695c-5.724-9.91-12.539-18.544-19.192-24.313c-11.189-9.7-19.122-8.951-23.93-6.419
	l-31.421,14.039c-11.976-9.735-25.254-17.406-39.603-22.877l-3.556-34.274C225.702,7.565,200.107,1.809,178.19,1.809
	c-23.689,0-47.591,6.803-48.177,21.98l-3.551,34.217C112.109,63.48,98.831,71.149,86.861,80.88L55.385,66.816
	c-14.331-7.51-32.112,11.781-43.069,30.76c-5.723,9.91-9.793,20.13-11.461,28.778c-2.807,14.541,1.809,21.036,6.407,23.935
	l27.76,20.112c-1.218,7.605-1.834,15.353-1.834,23.104c0,7.642,0.601,15.292,1.79,22.814L7.262,236.403
	c-4.599,2.899-9.214,9.394-6.407,23.934c1.668,8.648,5.738,18.868,11.461,28.778c10.953,18.972,28.722,38.249,43.051,30.769
	l31.239-13.959c12.045,9.837,25.422,17.582,39.891,23.094l3.519,33.896c0.244,5.824,4.318,15.607,27.277,20.071
	c0.58,0.113,1.158,0.167,1.728,0.167c4.222,0,7.989-2.985,8.825-7.284C168.794,370.988,165.607,366.263,160.728,365.315z
	 M394.281,252.608c-5.312,42.667-26.92,80.711-60.847,107.125c-28.551,22.229-62.95,33.982-98.563,33.982
	c-6.706,0-13.453-0.417-20.214-1.258c-5.645-0.704-11.346-1.724-16.945-3.032c-3.754-0.877-6.532-4.046-6.91-7.882
	c-1.169-11.869-1.011-23.918,0.47-35.813c10.969-88.08,91.551-150.814,179.626-139.85c5.653,0.705,11.354,1.726,16.945,3.033
	c3.752,0.877,6.53,4.046,6.908,7.881C395.921,228.672,395.762,240.722,394.281,252.608z M377.329,225.091
	c-2.884-0.539-5.778-0.99-8.658-1.35c-78.221-9.736-149.796,45.982-159.538,124.212c-0.555,4.463-0.901,8.949-1.037,13.438
	l82.337-72.135c3.74-3.276,9.426-2.898,12.7,0.839c3.275,3.739,2.899,9.425-0.839,12.7l-82.352,72.147
	c36.849,3.805,73.113-6.584,102.435-29.413c30.132-23.46,49.325-57.25,54.043-95.147
	C377.466,241.992,377.769,233.512,377.329,225.091z"/>
<g>
</g>
<g>
</g>
<g>
</g>
<g>
</g>
<g>
</g>
<g>
</g>
<g>
</g>
<g>
</g>
<g>
</g>
<g>
</g>
<g>
</g>
<g>
</g>
<g>
</g>
<g>
</g>
<g>
</g>
</svg>
